<svg width="100" height="100" viewBox="0 0 100 100" xmlns="http://www.w3.org/2000/svg">
  <defs>
    <pattern id="csgo-pattern" patternUnits="userSpaceOnUse" width="100" height="100">
      <!-- Desen Arka Plan -->
      <rect width="100" height="100" fill="none" />
      
      <!-- Silah İkonu -->
      <path d="M60 35 L80 35 L85 40 L80 45 L70 45 L68 43 L60 43 Z" fill="white" fill-opacity="0.1" />
      
      <!-- Hedef İkonu -->
      <circle cx="30" cy="30" r="10" stroke="white" stroke-opacity="0.1" fill="none" stroke-width="1" />
      <circle cx="30" cy="30" r="5" stroke="white" stroke-opacity="0.1" fill="none" stroke-width="1" />
      <line x1="15" y1="30" x2="45" y2="30" stroke="white" stroke-opacity="0.1" stroke-width="1" />
      <line x1="30" y1="15" x2="30" y2="45" stroke="white" stroke-opacity="0.1" stroke-width="1" />
      
      <!-- Mermi İkonu -->
      <rect x="70" y="70" width="12" height="5" rx="1" fill="white" fill-opacity="0.1" />
      <rect x="70" y="77" width="12" height="5" rx="1" fill="white" fill-opacity="0.1" />
      
      <!-- Patlama İkonu -->
      <path d="M25 65 L30 60 L35 65 L40 60 L35 75 L30 70 L25 75 Z" fill="white" fill-opacity="0.1" />
      
      <!-- Dağınık Küçük Noktalar -->
      <circle cx="10" cy="10" r="1" fill="white" fill-opacity="0.1" />
      <circle cx="90" cy="10" r="1" fill="white" fill-opacity="0.1" />
      <circle cx="10" cy="90" r="1" fill="white" fill-opacity="0.1" />
      <circle cx="90" cy="90" r="1" fill="white" fill-opacity="0.1" />
      <circle cx="50" cy="10" r="1" fill="white" fill-opacity="0.1" />
      <circle cx="10" cy="50" r="1" fill="white" fill-opacity="0.1" />
      <circle cx="90" cy="50" r="1" fill="white" fill-opacity="0.1" />
      <circle cx="50" cy="90" r="1" fill="white" fill-opacity="0.1" />
    </pattern>
  </defs>
  
  <rect width="100" height="100" fill="url(#csgo-pattern)" />
</svg> 